<svg width="504" height="504" viewBox="0 0 504 504" fill="none" xmlns="http://www.w3.org/2000/svg">
<path d="M499.57 248.5C495.578 246.137 490.425 247.453 488.062 251.445C487.371 252.629 486.531 253.719 485.562 254.688C482.617 257.66 478.605 259.328 474.417 259.313C466.085 259.961 459.296 250.656 453.96 245.606C441.136 232.704 424.089 224.86 405.948 223.52C431.284 215.121 463.069 215.926 486.147 232.719H486.143C489.225 236.184 494.53 236.5 497.998 233.418C505.709 226.094 496.045 217.457 489.186 214.176C438.971 188.219 382.276 203.446 346.276 245.61C343.151 248.915 343.225 254.106 346.44 257.325C349.658 260.54 354.85 260.61 358.151 257.481C369.315 246.419 384.397 240.211 400.116 240.211C415.835 240.211 430.917 246.418 442.081 257.481L451.151 266.559C457.315 272.649 465.628 276.063 474.292 276.063C482.952 276.063 491.269 272.649 497.429 266.559C502.554 261.942 507.241 253.215 499.566 248.5L499.57 248.5Z" fill="#3FC035"/>
<path d="M431.43 281.63C397.504 263.821 357.594 274.259 333.297 302.993C330.113 306.29 330.156 311.528 333.399 314.77C336.637 318.008 341.875 318.055 345.172 314.872C352.05 308.055 361.344 304.231 371.027 304.231C380.71 304.231 390.004 308.055 396.882 314.872C402.952 321.54 410.581 328.571 420.249 328.071H420.252C427.612 327.981 434.545 324.606 439.154 318.867C443.764 313.129 445.569 305.633 444.076 298.426C442.58 291.219 437.94 285.059 431.428 281.629L431.43 281.63ZM425.735 309.001V309.005C422.668 311.931 417.84 311.931 414.774 309.005C407.68 300.528 398.508 294.032 388.161 290.153C397.489 288.251 437.669 292.356 425.735 309.005V309.001Z" fill="#3FC035"/>
<path d="M249.56 148.9C246.279 152.181 246.283 157.502 249.564 160.783C252.845 164.06 258.162 164.06 261.443 160.779C261.505 160.779 272.197 149.978 272.263 149.955C289.318 133.002 300.517 111.045 304.224 87.2831C307.935 63.5211 303.958 39.1971 292.88 17.8491C288.38 9.06001 280.157 2.76711 270.497 0.720108C260.833 -1.32679 250.767 1.09511 243.087 7.30601C235.411 13.5169 230.942 22.861 230.927 32.736C230.329 46.494 240.325 56.256 249.587 64.955V64.9511C260.653 76.1191 266.86 91.2051 266.86 106.928C266.86 122.651 260.653 137.733 249.587 148.901L249.56 148.9ZM261.443 53.072L252.38 44.0017C249.087 40.6931 247.404 36.1072 247.783 31.4507C248.162 26.7984 250.56 22.5405 254.345 19.8057C258.131 17.0709 262.927 16.1338 267.462 17.2432C272.001 18.3487 275.826 21.3877 277.931 25.5557C290.072 48.9387 292.083 76.2787 283.502 101.189C282.166 83.0207 274.334 65.9427 261.443 53.0757L261.443 53.072Z" fill="#3FC035"/>
<path d="M192.17 161.87C188.893 165.151 188.893 170.472 192.174 173.753C195.455 177.03 200.776 177.03 204.057 173.749C232.78 149.44 243.256 109.546 225.416 75.6161L225.412 75.6122C222.037 69.0224 215.865 64.3072 208.619 62.7802C201.373 61.249 193.822 63.0692 188.068 67.7333C182.318 72.3974 178.974 79.4093 178.97 86.8153C178.478 96.4911 185.494 104.112 192.173 110.19H192.177C199.033 117.046 202.884 126.342 202.884 136.042C202.884 145.738 199.033 155.038 192.177 161.894L192.17 161.87ZM198.045 92.272C196.447 90.6626 195.639 88.4282 195.826 86.1665C196.014 83.9048 197.182 81.8384 199.025 80.5142C200.865 79.1861 203.197 78.733 205.404 79.272C207.607 79.811 209.467 81.2876 210.49 83.315C216.166 94.249 218.396 106.647 216.896 118.874C213.01 108.53 206.517 99.366 198.044 92.272H198.045Z" fill="#3FC035"/>
<path d="M429.94 84.6101C429.655 82.0749 428.245 79.8015 426.096 78.4226C423.948 77.0398 421.292 76.7038 418.866 77.5007L387.819 88.1847L362.432 67.6647H362.436C359.99 65.6881 356.647 65.2428 353.768 66.5124C350.893 67.778 348.963 70.5476 348.772 73.6843L346.811 105.918L319.37 121.094H319.373C316.569 122.7 314.924 125.758 315.131 128.981C315.342 132.204 317.366 135.024 320.354 136.254L356.479 150.551L370.776 186.684V186.68C372.003 189.669 374.827 191.692 378.049 191.903C381.272 192.11 384.331 190.466 385.932 187.661L401.108 160.22L433.346 158.259L433.35 158.263C436.491 158.072 439.26 156.142 440.526 153.263C441.795 150.384 441.35 147.04 439.37 144.595L418.878 119.224C419.159 117.603 431.312 85.224 429.94 84.611L429.94 84.6101ZM395.499 143.739V143.743C392.632 143.915 390.05 145.54 388.655 148.055L379.858 163.957C378.811 161.954 370.647 138.914 368.893 138.141C368.198 136.462 344.971 128.173 343.084 127.18L358.959 118.384C361.479 116.997 363.108 114.415 363.276 111.54L364.53 90.9778L380.878 104.162C383.124 105.99 386.155 106.525 388.889 105.572L408.053 98.9704L401.456 118.161C400.514 120.896 401.049 123.923 402.87 126.173L416.077 142.489L395.499 143.739Z" fill="#3FC035"/>
<path d="M69.31 503.19L138.06 476.518C138.486 476.35 141.623 475.213 141.982 475.01L177.091 461.444C177.275 461.378 177.454 461.3 177.649 461.214L331.649 401.503C331.868 401.44 332.091 401.362 332.306 401.28L366.431 388.026L366.435 388.022C369.079 386.995 371.028 384.698 371.614 381.921C372.2 379.143 371.341 376.256 369.333 374.249L313.981 318.897L253.751 258.678L251.079 256.006L132.809 137.766C130.786 135.789 127.915 134.949 125.149 135.535C122.383 136.117 120.09 138.043 119.036 140.664C118.852 141.336 80.5477 239.555 80.5087 240.211C79.6962 242.305 79.7548 244.637 80.6728 246.692C81.5908 248.742 83.2939 250.34 85.3994 251.125L121.579 264.566C165.259 280.929 260.609 316.261 303.529 332.254L348.33 377.055L329.189 384.485L297.267 372.614L254.521 356.727L254.525 356.723C254.33 356.614 254.119 356.539 253.9 356.496L217.591 343C217.591 343 144.259 315.75 144.232 315.723L107.763 302.172V302.169C107.615 302.087 107.455 302.028 107.287 301.997L78.6927 291.356L86.2357 271.903C87.9115 267.571 85.7553 262.703 81.4272 261.032C77.0991 259.36 72.2319 261.512 70.5562 265.84L3.68115 438.22C0.17725 447.322 -0.607952 457.247 1.41555 466.79C3.44285 476.333 8.19285 485.083 15.0955 491.978C21.8533 498.139 37.6465 511.31 43.8145 498.49C47.3887 487.115 32.1735 487.115 26.9745 480.099C22.369 475.505 19.2011 469.673 17.8456 463.31C16.494 456.951 17.0175 450.33 19.3535 444.259L22.6504 435.747L51.3573 446.427L111.505 468.825L63.2323 487.528V487.532C59.0214 489.282 56.9784 494.075 58.6268 498.325C60.2791 502.579 65.0175 504.735 69.3109 503.189L69.31 503.19ZM209.31 279.26L217.923 256.99L234.439 263.15L238.068 266.779L230.193 287.041L209.31 279.26ZM172.611 265.615L181.24 243.353L202.178 251.138L193.565 273.404L172.611 265.615ZM135.943 252.006L144.556 229.74L165.49 237.525L156.865 259.787L135.943 252.006ZM99.189 238.326L107.814 216.084L128.798 223.861L120.196 246.099L99.189 238.326ZM130.044 158.76L205.903 234.596L179.583 224.807L113.899 200.393L130.044 158.76ZM245.934 292.88L251.039 279.735L274.98 303.676L245.934 292.88ZM65.394 433.75L74.0463 411.488L94.9683 419.273L86.3277 441.535L65.394 433.75ZM57.8745 344.852C58.7026 345.114 160.214 383.004 161.004 383.161C164.895 384.88 168.946 386.212 173.095 387.138C177.559 387.024 181.184 383.501 181.423 379.044C181.665 374.587 178.438 370.696 174.016 370.102L182.622 347.891L203.567 355.677L192.54 384.193C190.755 387.044 190.888 390.696 192.876 393.411L192.954 393.529C193.657 394.474 194.532 395.275 195.536 395.884C195.981 396.181 196.473 396.408 196.985 396.56L233.184 410.001V409.997C233.29 410.067 233.407 410.11 233.532 410.126L248.466 415.681L192.22 437.517L145.591 420.173L43.4108 382.173L57.8745 344.852ZM130.199 328.411L121.574 350.626L100.66 342.849L109.277 320.638L130.199 328.411ZM166.866 342.04L158.253 364.267L137.315 356.482L145.94 334.259L166.866 342.04ZM240.225 369.306L231.604 391.513L210.721 383.747L219.311 361.532L240.225 369.306ZM283.241 385.286L275.542 405.2L272.066 406.548L247.359 397.356L255.995 375.157L283.241 385.286ZM305.53 393.575L296.734 396.985L298.972 391.138L305.53 393.575ZM140.01 457.766L147.389 438.778L168.67 446.68L140.01 457.766ZM110.71 425.133L131.643 432.918L122.987 455.18L102.073 447.395L110.71 425.133ZM93.5025 314.783L84.8853 336.994L63.9203 329.193L72.5219 306.99L93.5025 314.783ZM37.3345 397.842L58.2955 405.639L49.6393 427.901L28.7053 420.112L37.3345 397.842Z" fill="#3FC035"/>
</svg>
