<svg width="1212" height="311" viewBox="0 0 1212 311" fill="none" xmlns="http://www.w3.org/2000/svg">
<g clip-path="url(#clip0_8_122)">
<path fill-rule="evenodd" clip-rule="evenodd" d="M1065.1 310.761L1211.77 161.568L1065.1 10.0566H1053.65L1196.13 157.261L1200.35 161.568L1196.13 165.874L1053.65 310.761H1065.1" fill="#3FC035"/>
<path d="M1065.1 310.761L1211.77 161.568L1065.1 10.0566H1053.65L1196.13 157.261L1200.35 161.568L1196.13 165.874L1053.65 310.761H1065.1" stroke="#3FC035" stroke-width="4"/>
<path d="M3.14372 71.3071H22.0717C38.1787 71.3071 46.0047 60.2051 46.0047 39.5481C46.0047 18.8911 38.1787 7.78906 22.0717 7.78906H3.14372V71.3071ZM13.2447 62.9351V16.1611H21.4347C30.7167 16.1611 35.2667 22.7131 35.2667 34.2701V44.8261C35.2667 56.3831 30.7167 62.9351 21.4347 62.9351H13.2447Z" fill="#3FC035"/>
<path d="M100.569 71.3071V62.7531H70.9942V43.3701H99.4772V34.8161H70.9942V16.3431H100.569V7.78906H60.8022V71.3071H100.569Z" fill="#3FC035"/>
<path d="M150.766 71.3071H159.775V7.78906H148.036L138.208 32.9961H137.571L127.834 7.78906H115.367V71.3071H124.376V40.9131L124.103 21.8031H124.831L137.571 54.4721L150.311 21.8031H151.039L150.766 40.9131V71.3071Z" fill="#3FC035"/>
<path d="M220.436 71.3071L201.872 7.78906H187.949L169.385 71.3071H179.759L184.582 54.3811H204.784L209.607 71.3071H220.436ZM202.873 45.9181H186.493L194.319 18.0721H195.047L202.873 45.9181Z" fill="#3FC035"/>
<path d="M272.18 71.3071V63.5721H257.256V15.5241H272.18V7.78906H232.14V15.5241H247.064V63.5721H232.14V71.3071H272.18Z" fill="#3FC035"/>
<path d="M317.098 71.3071H330.202V7.78906H321.284V56.6561H320.465L301.81 7.78906H288.706V71.3071H297.624V22.4401H298.443L317.098 71.3071Z" fill="#3FC035"/>
<path d="M356.738 84.5021H364.473L375.757 57.4751H361.652L356.738 84.5021Z" fill="#3FC035"/>
<path d="M24.8017 190.399C37.0867 190.399 42.7287 183.301 45.6407 174.656L36.4497 171.562C34.5387 177.386 31.8997 181.936 24.7107 181.936C15.7017 181.936 11.7887 174.565 11.7887 162.917V152.179C11.7887 140.531 15.7017 133.16 24.7107 133.16C31.8997 133.16 34.5387 137.71 36.4497 143.534L45.6407 140.44C42.7287 131.795 37.0867 124.697 24.8017 124.697C8.69472 124.697 0.959717 136.527 0.959717 157.548C0.959717 178.569 8.69472 190.399 24.8017 190.399Z" fill="#3FC035"/>
<path d="M72.0862 149.085H79.7302L91.1052 121.967H77.0002L72.0862 149.085Z" fill="#3FC035"/>
<path d="M157.864 189.307V180.753H128.289V161.37H156.772V152.816H128.289V134.343H157.864V125.789H118.097V189.307H157.864Z" fill="#3FC035"/>
<path d="M194.319 190.399C209.243 190.399 217.433 182.573 217.433 170.834C217.433 161.825 212.519 155.273 201.053 153.18L194.319 151.997C186.493 150.723 183.763 147.811 183.763 142.624C183.763 136.436 187.858 133.16 195.32 133.16C202.327 133.16 206.968 135.981 210.426 140.258L216.796 133.888C212.428 128.155 205.33 124.697 195.32 124.697C181.852 124.697 173.48 131.158 173.48 143.079C173.48 151.542 177.757 158.731 189.769 160.733L196.685 161.825C204.329 163.099 207.15 165.92 207.15 171.38C207.15 178.114 202.691 181.936 194.683 181.936C187.858 181.936 182.489 179.206 177.666 173.473L171.114 179.752C175.937 186.122 183.308 190.399 194.319 190.399Z" fill="#3FC035"/>
<path d="M277.185 134.343V125.789H227.135V134.343H247.064V189.307H257.256V134.343H277.185Z" fill="#3FC035"/>
<path d="M392.319 189.307L373.755 125.789H359.832L341.268 189.307H351.642L356.465 172.381H376.667L381.49 189.307H392.319ZM374.756 163.918H358.376L366.202 136.072H366.93L374.756 163.918Z" fill="#3FC035"/>
<path d="M403.022 125.789V163.008C403.022 181.208 406.298 190.399 424.043 190.399C441.788 190.399 445.064 181.208 445.064 163.008V125.789H434.872V164.828C434.872 175.293 434.326 181.936 424.043 181.936C413.76 181.936 413.214 175.293 413.214 164.828V125.789H403.022Z" fill="#3FC035"/>
<path d="M466.595 125.789V134.343H488.708V170.925C488.708 178.296 485.159 181.845 479.244 181.845C472.783 181.845 470.144 177.841 469.052 172.654L459.406 174.656C461.317 184.393 468.051 190.399 479.153 190.399C490.983 190.399 498.9 183.301 498.9 172.29V125.789H466.595Z" fill="#3FC035"/>
<path d="M538.632 190.399C554.739 190.399 561.928 178.296 561.928 157.548C561.928 136.8 554.739 124.697 538.632 124.697C522.525 124.697 515.336 136.8 515.336 157.548C515.336 178.296 522.525 190.399 538.632 190.399ZM538.632 181.936C529.532 181.936 526.165 174.565 526.165 162.917V152.179C526.165 140.531 529.532 133.16 538.632 133.16C547.732 133.16 551.099 140.531 551.099 152.179V162.826C551.099 174.565 547.732 181.936 538.632 181.936Z" fill="#3FC035"/>
<path d="M574.905 125.789V163.008C574.905 181.208 578.181 190.399 595.926 190.399C613.671 190.399 616.947 181.208 616.947 163.008V125.789H606.755V164.828C606.755 175.293 606.209 181.936 595.926 181.936C585.643 181.936 585.097 175.293 585.097 164.828V125.789H574.905Z" fill="#3FC035"/>
<path d="M643.666 163.645H652.129L665.597 189.307H676.881L662.23 162.735C671.057 161.279 675.971 154.545 675.971 144.899C675.971 133.069 669.328 125.789 657.316 125.789H633.565V189.307H643.666V163.645ZM643.666 155.455V134.252H655.86C662.23 134.252 665.324 137.073 665.324 142.897V146.81C665.324 152.634 662.23 155.455 655.86 155.455H643.666Z" fill="#3FC035"/>
<path d="M690.677 189.307H709.605C725.712 189.307 733.538 178.205 733.538 157.548C733.538 136.891 725.712 125.789 709.605 125.789H690.677V189.307ZM700.778 180.935V134.161H708.968C718.25 134.161 722.8 140.713 722.8 152.27V162.826C722.8 174.383 718.25 180.935 708.968 180.935H700.778Z" fill="#3FC035"/>
<path d="M759.62 149.085H767.264L778.639 121.967H764.534L759.62 149.085Z" fill="#3FC035"/>
<path d="M835.66 189.307H845.852V125.789H835.66V152.816H814.548V125.789H804.356V189.307H814.548V161.37H835.66V189.307Z" fill="#3FC035"/>
<path d="M861.378 125.789V163.008C861.378 181.208 864.653 190.399 882.398 190.399C900.144 190.399 903.419 181.208 903.419 163.008V125.789H893.228V164.828C893.228 175.293 892.681 181.936 882.398 181.936C872.115 181.936 871.57 175.293 871.57 164.828V125.789H861.378Z" fill="#3FC035"/>
<path d="M959.713 189.307V181.572H944.789V133.524H959.713V125.789H919.673V133.524H934.597V181.572H919.673V189.307H959.713Z" fill="#3FC035"/>
<path d="M1057.1 169.014V161.006C1065.66 159.459 1074.03 153.453 1074.03 142.533C1074.03 131.795 1066.11 124.697 1054.01 124.697C1042 124.697 1035.63 131.704 1033.35 139.348L1042 142.806C1043.45 137.346 1047.37 133.342 1053.64 133.342C1059.56 133.342 1063.47 136.254 1063.47 142.26V143.534C1063.47 151.178 1057.38 154.545 1047.55 154.909V169.014H1057.1ZM1052.55 190.217C1058.1 190.217 1060.2 187.578 1060.2 184.12V181.936C1060.2 178.478 1058.1 175.839 1052.55 175.839C1047 175.839 1044.91 178.478 1044.91 181.936V184.12C1044.91 187.578 1047 190.217 1052.55 190.217Z" fill="#3FC035"/>
</g>
<defs>
<clipPath id="clip0_8_122">
<rect width="1211" height="311" fill="white" transform="translate(0.414062)"/>
</clipPath>
</defs>
</svg>