<svg width="298" height="105" viewBox="0 0 298 105" fill="none" xmlns="http://www.w3.org/2000/svg">
<path d="M245.62 92.47L284.71 52.7L245.62 12.31H242.56L280.54 51.55L281.67 52.7L280.54 53.85L242.56 92.47H245.62Z" fill="#3FC035"/>
<path d="M21.1499 72.95H17.9299L11.6899 92.55H14.2399L16.0299 86.73H22.9699L24.7599 92.55H27.4199L21.1499 72.95ZM18.7999 77.62C19.0099 77.02 19.2399 76.24 19.4999 75.27L19.9799 76.89C20.0199 77.02 20.0499 77.15 20.0899 77.27C20.1299 77.39 20.1599 77.51 20.1999 77.62L22.3299 84.59H16.6699L18.7999 77.62ZM38.8799 92.97C41.0799 92.97 42.7599 92.34 43.9099 91.08C45.0599 89.82 45.6299 87.99 45.6299 85.58V72.95H43.0499V85.21C43.0499 87.04 42.6999 88.43 41.9899 89.4C41.2799 90.36 40.2399 90.84 38.8799 90.84C37.5199 90.84 36.4799 90.36 35.7599 89.4C35.0399 88.44 34.6799 87.04 34.6799 85.21V72.95H32.1299V85.58C32.1299 87.99 32.6999 89.82 33.8499 91.08C34.9999 92.34 36.6799 92.97 38.8799 92.97ZM57.4699 92.97C58.8299 92.97 60.0499 92.7 61.1099 92.16C62.1699 91.62 63.0099 90.83 63.6199 89.81C64.2299 88.78 64.5299 87.55 64.5299 86.11V72.95H61.9799V85.97C61.9799 87.58 61.5899 88.79 60.8199 89.61C60.0499 90.43 58.9699 90.84 57.5899 90.84C56.1499 90.84 55.1099 90.44 54.4699 89.64C53.8299 88.84 53.4899 87.79 53.4499 86.5H50.8499C50.8899 88.4 51.4599 89.96 52.5699 91.16C53.6699 92.36 55.2999 92.97 57.4699 92.97ZM77.5199 92.97C78.9899 92.97 80.2699 92.57 81.3399 91.77C82.4099 90.97 83.2299 89.8 83.7999 88.27C84.3699 86.74 84.6499 84.9 84.6499 82.75C84.6499 80.6 84.3699 78.76 83.7999 77.22C83.2299 75.68 82.4099 74.51 81.3399 73.71C80.2699 72.91 78.9899 72.51 77.5199 72.51C76.0499 72.51 74.7699 72.91 73.6999 73.71C72.6299 74.51 71.8099 75.68 71.2399 77.22C70.6699 78.76 70.3899 80.6 70.3899 82.75C70.3899 84.9 70.6699 86.74 71.2399 88.27C71.8099 89.8 72.6299 90.97 73.6999 91.77C74.7699 92.57 76.0399 92.97 77.5199 92.97ZM77.5199 90.84C76.1399 90.84 75.0499 90.13 74.2399 88.71C73.4399 87.29 73.0399 85.3 73.0399 82.75C73.0399 80.19 73.4399 78.2 74.2399 76.79C75.0399 75.37 76.1299 74.66 77.5199 74.66C78.8999 74.66 79.9899 75.37 80.7799 76.79C81.5699 78.21 81.9699 80.2 81.9699 82.75C81.9699 85.31 81.5699 87.3 80.7799 88.71C79.9899 90.13 78.8999 90.84 77.5199 90.84ZM96.8399 92.97C99.0399 92.97 100.72 92.34 101.87 91.08C103.02 89.82 103.59 87.99 103.59 85.58V72.95H101.01V85.21C101.01 87.04 100.66 88.43 99.9499 89.4C99.2399 90.36 98.1999 90.84 96.8399 90.84C95.4799 90.84 94.4399 90.36 93.7199 89.4C92.9999 88.44 92.6399 87.04 92.6399 85.21V72.95H90.0899V85.58C90.0899 87.99 90.6599 89.82 91.8099 91.08C92.9599 92.34 94.6299 92.97 96.8399 92.97ZM112.18 92.55V83.98H116.1C117.59 83.98 118.65 84.27 119.28 84.86C119.9 85.45 120.22 86.51 120.22 88.04V92.55H122.77V87.34C122.77 86.09 122.48 85.07 121.9 84.27C121.32 83.48 120.55 83.01 119.58 82.86C120.55 82.56 121.4 81.98 122.13 81.12C122.86 80.26 123.22 79.25 123.22 78.1C123.22 76.48 122.67 75.21 121.57 74.31C120.47 73.4 118.97 72.95 117.09 72.95H109.64V92.55H112.18V92.55ZM112.18 81.82V75.07H116.44C117.78 75.07 118.81 75.35 119.53 75.91C120.25 76.47 120.61 77.3 120.61 78.4C120.61 79.5 120.25 80.35 119.53 80.93C118.81 81.52 117.78 81.81 116.44 81.81H112.18V81.82ZM134.16 92.55C137.03 92.55 139.21 91.68 140.7 89.95C142.18 88.21 142.93 85.84 142.93 82.84C142.93 76.25 139.81 72.96 133.58 72.96H129.41V92.56H134.16V92.55ZM131.95 90.39V75.07H133.77C136.05 75.07 137.69 75.71 138.71 76.99C139.73 78.27 140.24 80.18 140.24 82.72C140.24 85.39 139.7 87.34 138.63 88.56C137.56 89.78 135.97 90.39 133.86 90.39H131.95ZM150.23 81.07C152.58 80.75 153.76 79.19 153.76 76.39V72.41H150.18V76.02H151.89V76.47C151.89 77.42 151.75 78.1 151.48 78.51C151.21 78.92 150.79 79.2 150.23 79.35V81.07ZM165.29 83.33H173.02V92.54H175.57V72.94H173.02V81.17H165.29V72.94H162.74V92.54H165.29V83.33ZM188.48 92.97C190.68 92.97 192.36 92.34 193.51 91.08C194.66 89.82 195.23 87.99 195.23 85.58V72.95H192.65V85.21C192.65 87.04 192.3 88.43 191.59 89.4C190.88 90.36 189.84 90.84 188.48 90.84C187.12 90.84 186.08 90.36 185.36 89.4C184.64 88.44 184.28 87.04 184.28 85.21V72.95H181.73V85.58C181.73 87.99 182.3 89.82 183.45 91.08C184.6 92.34 186.27 92.97 188.48 92.97ZM201.05 72.95V75.08H206.51V90.4H201.05V92.56H214.55V90.4H209.06V75.07H214.55V72.94H201.05V72.95ZM229.83 87.03C229.83 86.15 229.95 85.42 230.19 84.83C230.43 84.24 230.85 83.71 231.45 83.22L232.23 82.6C233.2 81.82 233.94 81.02 234.44 80.22C234.94 79.42 235.2 78.48 235.2 77.42C235.2 76.54 234.95 75.73 234.44 74.97C233.94 74.21 233.23 73.61 232.31 73.16C231.4 72.71 230.36 72.49 229.2 72.49C227.95 72.49 226.83 72.75 225.85 73.26C224.87 73.77 224.1 74.52 223.55 75.49C223 76.46 222.72 77.61 222.72 78.93H225.24C225.24 77.57 225.59 76.49 226.29 75.7C226.99 74.91 227.96 74.51 229.19 74.51C230.25 74.51 231.09 74.8 231.71 75.38C232.33 75.96 232.63 76.7 232.63 77.59C232.63 78.78 232.01 79.87 230.78 80.84L230.11 81.43C229.01 82.33 228.27 83.18 227.9 84.01C227.53 84.83 227.34 85.84 227.34 87.03H229.83V87.03ZM230.3 89.05H226.97V92.55H230.3V89.05Z" fill="#3FC035"/>
<path d="M20.0899 62.65C22.1199 62.65 23.7099 62.06 24.8499 60.89C25.9899 59.71 26.6699 58.05 26.8899 55.91H24.2599C23.9999 57.44 23.5499 58.59 22.8999 59.37C22.2599 60.14 21.2999 60.53 20.0299 60.53C18.4799 60.53 17.2699 59.79 16.3999 58.3C15.5299 56.82 15.0999 54.82 15.0999 52.32C15.0999 49.84 15.5199 47.89 16.3699 46.47C17.2199 45.05 18.4399 44.34 20.0199 44.34C21.2099 44.34 22.1399 44.76 22.8099 45.59C23.4699 46.42 23.8999 47.55 24.0799 48.96H26.8799C26.7299 46.94 26.0899 45.31 24.9499 44.06C23.8099 42.81 22.2299 42.18 20.2199 42.18C18.6499 42.18 17.2799 42.6 16.0899 43.45C14.8999 44.3 13.9899 45.49 13.3599 47.02C12.7299 48.55 12.4099 50.31 12.4099 52.31C12.4099 54.42 12.7099 56.25 13.3099 57.8C13.9099 59.35 14.7799 60.54 15.9399 61.38C17.0999 62.23 18.4799 62.65 20.0899 62.65ZM34.3099 50.75C36.6599 50.43 37.8399 48.87 37.8399 46.07V42.09H34.2599V45.7H35.9699V46.15C35.9699 47.1 35.8299 47.78 35.5599 48.19C35.2899 48.6 34.8699 48.88 34.3099 49.03V50.75V50.75ZM59.5299 60.07H49.1399V53.32H58.7199V51.16H49.1399V44.75H59.1899V42.62H46.5899V62.22H59.5299V60.07V60.07ZM71.8999 62.65C73.3699 62.65 74.6799 62.39 75.8099 61.87C76.9399 61.35 77.8099 60.64 78.4299 59.76C79.0499 58.87 79.3499 57.9 79.3499 56.83C79.3499 55.41 78.8699 54.27 77.9099 53.4C76.9499 52.53 75.5899 51.86 73.8399 51.4L71.2399 50.7C70.0099 50.36 69.1099 49.94 68.5399 49.43C67.9699 48.92 67.6899 48.23 67.6899 47.37C67.6899 46.51 68.0799 45.79 68.8699 45.21C69.6499 44.63 70.6199 44.34 71.7799 44.34C73.0299 44.34 74.0699 44.68 74.8899 45.36C75.7099 46.04 76.1699 46.96 76.2599 48.12H78.8599C78.7899 46.93 78.4399 45.88 77.8199 44.98C77.1999 44.08 76.3799 43.39 75.3599 42.91C74.3299 42.42 73.1599 42.18 71.8299 42.18C70.5399 42.18 69.3799 42.42 68.3399 42.89C67.2999 43.37 66.4899 44.01 65.8999 44.84C65.3099 45.66 65.0199 46.59 65.0199 47.61C65.0199 49.03 65.5199 50.19 66.5299 51.08C67.5399 51.98 68.8899 52.66 70.5899 53.12L72.6299 53.65C73.9699 53.99 74.9799 54.4 75.6499 54.9C76.3199 55.39 76.6599 56.09 76.6599 56.99C76.6599 58.04 76.2399 58.88 75.3899 59.54C74.5399 60.19 73.3899 60.52 71.9299 60.52C70.5099 60.52 69.3399 60.1 68.4299 59.27C67.5199 58.44 67.0199 57.32 66.9499 55.92H64.3499C64.3699 57.28 64.6999 58.47 65.3299 59.49C65.9599 60.51 66.8499 61.29 67.9899 61.83C69.1199 62.38 70.4299 62.65 71.8999 62.65ZM92.4299 44.75H98.8099V42.62H83.4999V44.75H89.8799V62.22H92.4299V44.75V44.75Z" fill="#3FC035"/>
<path d="M27.01 22.19C27.01 15.6 23.89 12.31 17.66 12.31H13.49V31.91H18.25C21.12 31.91 23.3 31.04 24.79 29.31C26.26 27.57 27.01 25.2 27.01 22.19ZM24.32 22.08C24.32 24.75 23.78 26.7 22.71 27.92C21.64 29.14 20.05 29.75 17.94 29.75H16.04V14.43H17.86C20.14 14.43 21.78 15.07 22.8 16.35C23.81 17.63 24.32 19.54 24.32 22.08Z" fill="#3FC035"/>
<path d="M45.8799 29.75H35.4899V23H45.0699V20.85H35.4899V14.43H45.5399V12.31H32.9399V31.91H45.8799V29.75Z" fill="#3FC035"/>
<path d="M53.75 31.91L53.64 17.69C53.64 16.5 53.62 15.52 53.58 14.78L56.86 27.16H59.55L62.77 14.76C62.75 15.28 62.74 16.32 62.74 17.87L62.63 31.93H64.87V12.33H61.4L58.88 21.96L58.26 24.31L58.06 23.58L57.61 21.96L55.03 12.33H51.5V31.93H53.75V31.91Z" fill="#3FC035"/>
<path d="M85.3899 31.91L79.1199 12.31H75.8999L69.6599 31.91H72.2099L73.9999 26.09H80.9399L82.7299 31.91H85.3899ZM80.2899 23.95H74.6299L76.7599 16.98C76.9699 16.38 77.1999 15.6 77.4599 14.63L77.9399 16.25C77.9799 16.38 78.0099 16.51 78.0499 16.63C78.0899 16.75 78.1199 16.87 78.1599 16.98L80.2899 23.95Z" fill="#3FC035"/>
<path d="M89.5701 12.31V14.43H95.0301V29.75H89.5701V31.91H103.07V29.75H97.5801V14.43H103.07V12.31H89.5701Z" fill="#3FC035"/>
<path d="M111.72 17.15V14.77L118.27 31.91H122.05V12.31H119.53V26.56V29.02L113.18 12.31H109.23V31.91H111.72V17.15Z" fill="#3FC035"/>
<path d="M131.81 36.95C134.16 36.63 135.34 35.07 135.34 32.27V28.29H131.76V31.9H133.47V32.35C133.47 33.3 133.33 33.98 133.06 34.39C132.79 34.8 132.37 35.08 131.81 35.23V36.95Z" fill="#3FC035"/>
</svg>
