<svg width="394" height="505" viewBox="0 0 394 505" fill="none" xmlns="http://www.w3.org/2000/svg">
<path d="M318.92 313.83L319.943 300.951H319.947C320.166 298.705 319.479 296.467 318.029 294.736C316.584 293.006 314.502 291.931 312.252 291.752C310.006 291.572 307.779 292.306 306.076 293.787C304.373 295.264 303.338 297.369 303.201 299.619L296.932 378.224C294.393 418.228 235.846 433.357 196.998 433.329C141.127 432.931 96.3577 408.388 96.6977 376.415L94.7211 351.438C94.7211 351.243 84.4321 221.598 84.4161 221.328C112.33 241.75 161.096 253.851 206.396 251.797L194.462 303.242V303.246C193.415 307.765 196.228 312.281 200.747 313.328C205.267 314.375 209.783 311.562 210.829 307.043L223.931 250.57C258.271 246.929 288.505 236.519 309.497 221.449L305.493 271.601C305.271 273.843 305.962 276.085 307.408 277.812C308.857 279.542 310.939 280.62 313.185 280.8C315.435 280.976 317.661 280.245 319.365 278.765C321.064 277.284 322.103 275.183 322.236 272.933L332.759 141.243C336.165 113.372 319.173 89.6017 287.657 72.2387C283.571 70.0434 278.477 71.5785 276.282 75.6645C274.082 79.7504 275.618 84.8442 279.704 87.0395C302.942 99.5395 316.333 116.605 316.497 133.93L316.446 134.489C302.161 115.637 282.649 101.407 260.333 93.5671L276.212 25.1291C277.548 19.6838 282.876 16.2111 288.392 17.1877C293.911 18.1603 297.728 23.2463 297.122 28.8167L296.282 35.9808C295.743 40.5902 299.04 44.762 303.65 45.3011C308.255 45.8401 312.431 42.5433 312.97 37.9339L313.798 30.8675C314.896 21.4964 311.095 12.2155 303.743 6.30146C296.391 0.38736 286.516 -1.33524 277.595 1.74286C268.673 4.81706 261.962 12.2629 259.822 21.4539L251.244 58.4419C189.182 39.8559 64.9739 58.0786 60.6939 134.231C60.3619 134.996 75.0849 313.091 74.8969 313.881C27.7519 333.627 0.779917 363.967 0.720917 397.826C0.717011 458.357 85.1039 504.006 197.001 504.006C308.898 504.006 393.281 458.361 393.281 397.816C393.218 364.062 366.179 333.699 318.922 313.836L318.92 313.83ZM197 450.13C245.363 450.454 310.99 429.411 313.7 379.255L314.786 365.614C354.501 390.782 343.345 421.149 300.141 441.052C272.77 453.724 236.133 460.712 197.001 460.712C98.9109 461.009 10.2209 412.833 79.0009 365.692C79.079 366.223 80.122 381.126 80.3407 380.985C82.0907 419.923 132.704 450.13 197.001 450.13H197ZM197 235.2C147.984 235.2 103.52 220.442 82.53 197.477L80.9831 177.922C90.5651 187.051 101.639 194.465 113.733 199.84C117.948 201.785 122.936 199.945 124.881 195.731C126.826 191.516 124.987 186.527 120.772 184.583C106.331 178.536 93.8147 168.661 84.5727 156.024C103.116 109.954 185.073 87.4456 240.463 104.93L218.705 198.735C194.822 201.383 170.654 199.754 147.346 193.918C145.143 193.215 142.752 193.446 140.728 194.563C138.705 195.68 137.228 197.578 136.654 199.817C136.076 202.055 136.443 204.43 137.674 206.387C138.904 208.344 140.885 209.707 143.15 210.156C166.513 216.024 190.689 218 214.697 216.004L210.346 234.766C205.877 235.02 201.412 235.2 196.994 235.2L197 235.2ZM227.969 233.188L232.449 213.961C261.355 209.922 295.321 196.074 313.016 177.836L311.437 197.606C295.253 215.204 264.199 228.356 227.968 233.172L227.969 233.188ZM309.41 155.954C298.211 174.708 264.687 191.485 236.566 196.106L256.468 110.286C281.558 120.348 300.945 136.513 309.409 155.954H309.41ZM120.84 83.8333C160.883 66.8603 205.434 63.6853 247.48 74.806L244.289 88.482C187.234 71.166 106.199 90.8961 77.5586 134.56L77.5078 133.939C77.6758 114.763 93.4378 96.5249 120.848 83.8339L120.84 83.8333ZM197 487.203C98.035 487.203 17.52 447.113 17.52 397.844C17.563 372.231 38.856 348.457 76.321 331.574L77.5358 346.941C51.8328 361.043 37.7738 379.488 37.7738 399.339C37.7738 443.175 107.731 477.515 197.044 477.515C238.575 477.515 277.712 469.976 307.254 456.292C367.359 429.522 373.899 377.784 316.281 346.912L317.512 331.529C355.078 348.513 376.434 372.306 376.481 397.826C376.481 447.111 295.965 487.201 197.001 487.201L197 487.203Z" fill="#3FC035"/>
</svg>
